<svg xmlns="http://www.w3.org/2000/svg" width="1920" height="1080" viewBox="0 0 1920 1080" preserveAspectRatio="xMidYMid slice">
  <defs>
    <linearGradient id="bg" x1="0%" y1="0%" x2="0%" y2="100%">
      <stop offset="0%" stop-color="#0b0313" />
      <stop offset="40%" stop-color="#2c0a2a" />
      <stop offset="100%" stop-color="#5b0f33" />
    </linearGradient>
    <radialGradient id="glow" cx="50%" cy="30%" r="60%">
      <stop offset="0%" stop-color="#ff9bc9" stop-opacity="0.65" />
      <stop offset="70%" stop-color="#ff5f8f" stop-opacity="0.2" />
      <stop offset="100%" stop-color="#2c0a2a" stop-opacity="0" />
    </radialGradient>
    <filter id="softBlur" x="-20%" y="-20%" width="140%" height="140%">
      <feGaussianBlur stdDeviation="40" />
    </filter>
    <linearGradient id="heartGradient" x1="0%" y1="0%" x2="100%" y2="100%">
      <stop offset="0%" stop-color="#ffd1f3" />
      <stop offset="100%" stop-color="#ff6ca0" />
    </linearGradient>
  </defs>
  <rect width="1920" height="1080" fill="url(#bg)" />
  <circle cx="960" cy="400" r="600" fill="url(#glow)" />
  <g fill="url(#heartGradient)" opacity="0.15">
    <path d="M960 520c50-120 240-120 240 40 0 120-152 200-240 260-88-60-240-140-240-260 0-160 190-160 240-40z" filter="url(#softBlur)" />
    <path d="M400 600c40-90 180-90 180 30 0 90-114 150-180 195-66-45-180-105-180-195 0-120 140-120 180-30z" filter="url(#softBlur)" transform="translate(-60 80) scale(0.8)" />
    <path d="M1520 620c40-90 180-90 180 30 0 90-114 150-180 195-66-45-180-105-180-195 0-120 140-120 180-30z" filter="url(#softBlur)" transform="translate(40 -60) scale(0.9)" />
  </g>
  <g opacity="0.3" fill="#ffd6f0">
    <circle cx="200" cy="200" r="8" />
    <circle cx="1760" cy="300" r="5" />
    <circle cx="1500" cy="900" r="7" />
    <circle cx="400" cy="850" r="6" />
    <circle cx="960" cy="150" r="9" />
    <circle cx="1200" cy="700" r="5" />
    <circle cx="700" cy="500" r="4" />
  </g>
</svg>
